<?xml version="1.0" encoding="iso-8859-1"?>
<!-- Generator: Adobe Illustrator 19.0.0, SVG Export Plug-In . SVG Version: 6.00 Build 0)  -->
<svg version="1.1" id="Layer_1" xmlns="http://www.w3.org/2000/svg" xmlns:xlink="http://www.w3.org/1999/xlink" x="0px" y="0px"
	 viewBox="0 0 511.999 511.999" style="enable-background:new 0 0 511.999 511.999;" xml:space="preserve">
<path style="fill:#E45D4C;" d="M360.674,118.579h-32.577V66.533c0-14.297-11.632-25.929-25.929-25.929h-92.34
	c-14.297,0-25.929,11.632-25.929,25.929v52.046h-32.577V66.533c0-32.26,26.246-58.505,58.506-58.505h92.34
	c32.26,0,58.506,26.246,58.506,58.505L360.674,118.579L360.674,118.579z"/>
<path style="opacity:0.1;enable-background:new    ;" d="M160.553,59.475c0-16.855,7.174-32.059,18.618-42.745
	c-16.696,10.315-27.848,28.778-27.848,49.803v52.046h32.577v-7.058h-23.347V59.475z M337.328,111.521V59.475
	c0-14.297-11.632-25.929-25.929-25.929h-99.941c-13.54,0-24.684,10.435-25.826,23.685c3.747-9.715,13.178-16.627,24.197-16.627
	h92.339c14.297,0,25.929,11.632,25.929,25.929v52.046h32.577v-7.058C360.674,111.521,337.328,111.521,337.328,111.521z"/>
<path style="fill:#A4A8AB;" d="M458.324,131.026H53.674L96.49,471.272c2.352,18.686,18.24,32.701,37.074,32.701h244.872
	c18.832,0,34.722-14.016,37.074-32.701L458.324,131.026z"/>
<path style="fill:#4A5058;" d="M94.219,453.229l2.27,18.041c2.352,18.686,18.241,32.701,37.074,32.701h244.872
	c18.832,0,34.722-14.016,37.074-32.701l2.27-18.041H94.219z"/>
<path style="opacity:0.1;enable-background:new    ;" d="M458.323,131.026H53.674L96.49,471.272
	c2.352,18.686,18.24,32.701,37.074,32.701h244.872c14.862,0,27.886-8.732,33.874-21.597l0,0c-4.811,2.245-10.16,3.499-15.776,3.499
	H151.662c-18.832,0-34.722-14.016-37.074-32.701L81.398,189.427h369.576L458.323,131.026z"/>
<path style="fill:#4A5058;" d="M466.999,77.915h-422c-12.239,0-22.161,9.922-22.161,22.161v43.52
	c0,12.24,9.922,22.161,22.161,22.161h422c12.24,0,22.161-9.922,22.161-22.161v-43.52C489.16,87.838,479.238,77.915,466.999,77.915z"
	/>
<path style="opacity:0.2;enable-background:new    ;" d="M481.585,150.85H57.502c-10.911,0-19.757-8.846-19.757-19.757V85.491
	c0-2.294,0.348-4.504,0.986-6.589c-9.201,2.817-15.893,11.373-15.893,21.497v42.877c0,12.416,10.066,22.482,22.482,22.482h421.358
	c10.124,0,18.679-6.693,21.497-15.893C486.089,150.502,483.878,150.85,481.585,150.85z"/>
<g style="opacity:0.2;">
	<path d="M255.999,425.228c-8.867,0-16.056-7.189-16.056-16.056V233.033c0-8.867,7.189-16.056,16.056-16.056
		c8.867,0,16.056,7.189,16.056,16.056v176.138C272.055,418.04,264.867,425.228,255.999,425.228z"/>
	<path d="M160.422,425.229c-7.975,0-14.89-5.936-15.91-14.055l-22.133-176.138c-1.106-8.799,5.13-16.826,13.929-17.932
		c8.807-1.115,16.826,5.13,17.932,13.929l22.133,176.138c1.106,8.799-5.13,16.826-13.929,17.932
		C161.763,425.188,161.088,425.229,160.422,425.229z"/>
	<path d="M351.577,425.229c-0.667,0-1.342-0.042-2.022-0.127c-8.799-1.106-15.035-9.134-13.929-17.932l22.133-176.138
		c1.106-8.799,9.145-15.034,17.932-13.929c8.799,1.106,15.035,9.134,13.929,17.932l-22.133,176.138
		C366.467,419.292,359.552,425.229,351.577,425.229z"/>
</g>
<path d="M466.999,69.889h-98.296v-3.355C368.703,29.847,338.856,0,302.168,0h-92.34c-36.686,0-66.534,29.847-66.534,66.533v3.355H45
	c-16.647,0-30.189,13.543-30.189,30.189v43.52c0,16.647,13.542,30.189,30.189,30.189h5.964l37.56,298.487
	c2.85,22.648,22.214,39.726,45.04,39.726h244.872c22.826,0,42.189-17.079,45.04-39.726l37.56-298.487h5.964
	c16.647,0,30.189-13.543,30.189-30.189v-43.519C497.188,83.431,483.644,69.889,466.999,69.889z M159.351,66.533
	c0-27.833,22.644-50.477,50.478-50.477h92.339c27.834,0,50.478,22.644,50.478,50.477v3.355h-16.521v-3.355
	c0-18.724-15.233-33.957-33.958-33.957h-92.34c-18.724,0-33.958,15.233-33.958,33.957v3.355h-16.521v-3.355H159.351z M320.07,66.533
	v3.355H191.927v-3.355c0-9.87,8.031-17.901,17.902-17.901h92.339C312.039,48.633,320.07,56.663,320.07,66.533z M407.544,470.269
	c-1.842,14.637-14.357,25.675-29.109,25.675H133.564c-14.752,0-27.268-11.039-29.109-25.675L67.146,173.785h377.705L407.544,470.269
	z M481.132,143.596c0,7.793-6.34,14.133-14.133,14.133H45c-7.793,0-14.133-6.34-14.133-14.133v-43.519
	c0-7.793,6.34-14.133,14.133-14.133h421.999c7.793,0,14.133,6.34,14.133,14.133V143.596z M348.55,433.067
	c1.001,0.126,2.019,0.191,3.026,0.191c12.102,0,22.366-9.064,23.876-21.082l22.133-176.138c0.803-6.383-0.929-12.696-4.876-17.777
	c-3.947-5.081-9.635-8.32-16.016-9.122c-6.385-0.8-12.692,0.929-17.772,4.875c-5.083,3.948-8.325,9.636-9.127,16.018
	l-22.133,176.138c-0.803,6.383,0.929,12.696,4.876,17.777C336.483,429.026,342.171,432.266,348.55,433.067z M343.592,408.172
	l22.133-176.138c0.268-2.126,1.349-4.023,3.044-5.338c1.424-1.106,3.136-1.69,4.907-1.69c0.336,0,0.676,0.021,1.016,0.063
	c2.127,0.268,4.024,1.348,5.338,3.041c1.316,1.693,1.894,3.798,1.626,5.926l-22.133,176.138c-0.547,4.345-4.575,7.515-8.967,6.964
	c-2.127-0.268-4.024-1.348-5.338-3.041C343.902,412.403,343.325,410.299,343.592,408.172z M136.546,412.175
	c1.51,12.018,11.774,21.082,23.876,21.082c1.007,0,2.026-0.064,3.022-0.189c6.384-0.802,12.072-4.041,16.018-9.122
	c3.945-5.08,5.678-11.394,4.876-17.776l-22.133-176.139c-0.803-6.383-4.04-12.072-9.116-16.018
	c-5.083-3.952-11.403-5.684-17.781-4.875c-6.384,0.802-12.072,4.041-16.018,9.122c-3.947,5.081-5.678,11.394-4.876,17.776
	L136.546,412.175z M131.968,228.11c1.315-1.693,3.211-2.773,5.347-3.042c0.341-0.043,0.683-0.064,1.022-0.064
	c1.768,0,3.477,0.582,4.896,1.686c1.692,1.316,2.772,3.214,3.04,5.344l22.133,176.139c0.268,2.127-0.309,4.231-1.626,5.925
	c-1.316,1.693-3.211,2.773-5.342,3.041c-0.336,0.042-0.679,0.064-1.017,0.064c-4.027,0-7.441-3.022-7.945-7.028l-22.133-176.139
	C130.075,231.907,130.652,229.803,131.968,228.11z M255.999,433.256c13.279,0,24.084-10.803,24.084-24.084V233.033
	c0-13.28-10.804-24.084-24.084-24.084s-24.084,10.803-24.084,24.084v176.138C231.916,422.452,242.719,433.256,255.999,433.256z
	 M247.972,233.033c0-4.427,3.601-8.028,8.028-8.028c4.427,0,8.028,3.601,8.028,8.028v176.138c0,4.427-3.601,8.028-8.028,8.028
	c-4.427,0-8.028-3.601-8.028-8.028V233.033z"/>
<g>
</g>
<g>
</g>
<g>
</g>
<g>
</g>
<g>
</g>
<g>
</g>
<g>
</g>
<g>
</g>
<g>
</g>
<g>
</g>
<g>
</g>
<g>
</g>
<g>
</g>
<g>
</g>
<g>
</g>
</svg>
